<svg fill="none" version="1.1" viewBox="0 0 256 256" xml:space="preserve" xmlns="http://www.w3.org/2000/svg"><g transform="matrix(.93951 0 0 .93951 8.3219 8.9834)" stroke-width="1.5246"><path d="m52.32 25.169c18.488-13.727 40.338-22.025 63.112-24.087v37.761c-14.721 1.9124-28.78 7.56-40.806 16.489-15.058 11.181-26.132 26.915-31.588 44.882-5.4559 17.967-5.0047 37.215 1.2866 54.905 6.2914 17.691 18.09 32.888 33.656 43.347 15.566 10.46 34.074 15.63 52.795 14.75 18.721-0.88209 36.664-7.7694 51.183-19.646 14.517-11.878 24.842-28.115 29.45-46.318 3.2151-12.698 3.5288-25.882 1.0113-38.594l31.645-25.492-0.0214-0.20557c8.5425 23.546 9.8478 49.162 3.6811 73.523-6.584 26.005-21.333 49.202-42.073 66.169-20.74 16.966-46.372 26.804-73.117 28.064-26.745 1.259-53.185-6.1273-75.422-21.071-22.236-14.942-39.092-36.651-48.079-61.923-8.9877-25.272-9.6321-52.769-1.8381-78.436 7.794-25.667 23.614-48.144 45.126-64.117z" fill="#fcca00"/><path d="m220.2 42.794 0.1325 0.33269-21.147 33.655c-7.6912-11.419-17.996-20.924-30.056-27.652v76.589c0 23.498-19.01 42.548-42.461 42.548-23.451 0-42.461-19.049-42.461-42.548 0-23.498 19.01-42.548 42.461-42.548 8.7886 0 16.954 2.6757 23.728 7.2583v-87.595c27.568 5.3132 51.91 19.709 69.804 39.959z" fill="#fc3f1d"/></g></svg>
