<svg xmlns="http://www.w3.org/2000/svg" clip-rule="evenodd" fill-rule="evenodd" width="256" height="256" style=""><rect id="backgroundrect" width="100%" height="100%" x="0" y="0" fill="none" stroke="none" class="" style=""/><g class="currentLayer" style=""><title>Layer 1</title><g id="svg_1" class=""><ellipse cx="-7.59270215177489" cy="10.333137615436383" fill="#fc0" rx="13.597000122070305" ry="13.581000328063958" transform="matrix(7.169,0,0,7.169,179.905,78.282) " stroke-width="0" id="svg_2" class=""/><path d="m174.2866440731392,53.126959433593754 v91.07497599999999 l-0.21507000000000004,0.07169000000000053 v0.12187300000000002 c0,8.903898 -0.6452100000000006,17.212768999999998 -1.8567710000000006,21.456816999999997 c-5.80689,20.395805 -24.596839,35.192620999999995 -46.878091,35.192620999999995 c-26.919594999999997,0 -48.455270999999996,-21.72207 -48.455270999999996,-48.61298899999999 c0,-26.88375 21.535676,-48.60582 48.455270999999996,-48.60582 c12.681961,0 24.231219999999997,4.839075000000001 32.90571,12.767989 c2.8317550000000002,2.595178 5.355243000000001,5.512961000000001 7.513112,8.703166 c-0.6021960000000006,-2.8532620000000004 -1.1900540000000002,-6.444931 -1.1900540000000002,-9.520432 v-109.499306 l63.438480999999996,19.413652 v43.967476999999995 z" fill="#f33" stroke-width="0" id="svg_3" class=""/></g></g></svg>